<?xml version="1.0" standalone="no"?>
<!DOCTYPE svg PUBLIC "-//W3C//DTD SVG 20010904//EN"
 "http://www.w3.org/TR/2001/REC-SVG-20010904/DTD/svg10.dtd">
<svg version="1.0" xmlns="http://www.w3.org/2000/svg"
 width="70.000000pt" height="70.000000pt" viewBox="0 0 70.000000 70.000000"
 preserveAspectRatio="xMidYMid meet">

<g transform="translate(0.000000,70.000000) scale(0.100000,-0.100000)"
fill="#000000" stroke="none">
<path d="M168 543 c-87 -87 -161 -168 -164 -180 -8 -31 13 -63 47 -70 l29 -6
0 -127 c0 -71 3 -135 6 -144 5 -14 38 -16 264 -16 226 0 259 2 264 16 3 9 6
74 6 145 0 122 1 129 20 129 26 0 60 34 60 61 0 12 -26 48 -60 83 l-60 63 0
69 c0 41 -5 75 -12 82 -19 19 -95 15 -107 -5 -8 -15 -14 -13 -50 20 -23 20
-51 37 -63 37 -15 0 -73 -51 -180 -157z m344 -30 c82 -81 148 -154 148 -161 0
-7 -7 -15 -16 -19 -11 -4 -57 35 -155 133 l-139 139 -138 -138 c-75 -75 -143
-137 -150 -137 -7 0 -15 7 -19 16 -4 12 35 57 148 165 85 81 158 148 164 149
5 0 76 -66 157 -147z m28 65 l0 -41 -25 23 c-14 13 -25 32 -25 42 0 13 7 18
25 18 23 0 25 -4 25 -42z m-73 -140 l113 -113 0 -142 0 -143 -230 0 -230 0 0
142 0 143 112 112 c62 62 115 113 118 113 2 0 55 -51 117 -112z"/>
<path d="M340 427 c0 -7 -13 -18 -30 -24 -61 -23 -61 -96 0 -128 26 -13 30
-21 30 -55 0 -48 -14 -51 -35 -10 -16 31 -29 37 -40 19 -14 -22 6 -60 40 -76
28 -13 35 -23 35 -45 0 -15 5 -28 10 -28 6 0 10 13 10 29 0 23 6 31 29 39 36
13 53 43 49 85 -2 25 -11 36 -40 52 -34 18 -38 24 -38 60 l1 40 22 -27 c13
-16 29 -28 36 -28 8 0 11 10 9 28 -2 19 -12 31 -35 42 -18 8 -33 21 -33 28 0
6 -4 12 -10 12 -5 0 -10 -6 -10 -13z m0 -83 c0 -24 -4 -34 -12 -32 -18 6 -22
49 -6 59 18 12 18 13 18 -27z m55 -129 c0 -20 -6 -31 -17 -33 -15 -3 -18 4
-18 33 0 29 3 36 18 33 11 -2 17 -13 17 -33z"/>
</g>
</svg>
